<svg xmlns="http://www.w3.org/2000/svg" viewBox="0 0 32 32" width="32" height="32">
  <!-- Background circle -->
  <circle cx="16" cy="16" r="15" fill="#3b82f6" stroke="#2563eb" stroke-width="1"/>
  
  <!-- Globe grid lines -->
  <path d="M16 2 A14 14 0 0 1 16 30" stroke="white" stroke-width="1" fill="none" opacity="0.8"/>
  <path d="M2 16 A14 14 0 0 1 30 16" stroke="white" stroke-width="1" fill="none" opacity="0.8"/>
  <path d="M8 8 A11.3 11.3 0 0 1 24 24" stroke="white" stroke-width="0.5" fill="none" opacity="0.6"/>
  <path d="M24 8 A11.3 11.3 0 0 1 8 24" stroke="white" stroke-width="0.5" fill="none" opacity="0.6"/>
  
  <!-- Speech bubble -->
  <path d="M20 12 A3 3 0 0 1 20 18 L18 18 L18 20 L16 18 L14 18 A3 3 0 0 1 14 12 Z" fill="#10b981"/>
  
  <!-- Language symbols -->
  <text x="16" y="14" text-anchor="middle" font-family="Arial, sans-serif" font-size="6" font-weight="bold" fill="white">A</text>
  <text x="16" y="22" text-anchor="middle" font-family="Arial, sans-serif" font-size="6" font-weight="bold" fill="white">Я</text>
</svg> 